<svg width="28" height="28" viewBox="0 0 28 28" fill="none" xmlns="http://www.w3.org/2000/svg">
<path fill-rule="evenodd" clip-rule="evenodd" d="M25.6667 13.9999C25.6667 20.4432 20.4433 25.6666 14 25.6666C7.55667 25.6666 2.33333 20.4432 2.33333 13.9999C2.33333 7.5566 7.55667 2.33325 14 2.33325C20.4433 2.33325 25.6667 7.5566 25.6667 13.9999ZM18.702 10.4645C19.0438 10.8062 19.0438 11.3603 18.702 11.702L12.8687 17.5353C12.527 17.877 11.973 17.877 11.6313 17.5353L9.29794 15.202C8.95623 14.8603 8.95623 14.3062 9.29794 13.9645C9.63965 13.6228 10.1937 13.6228 10.5354 13.9645L12.25 15.6791L14.8573 13.0718L17.4646 10.4645C17.8063 10.1228 18.3603 10.1228 18.702 10.4645Z" fill="white"/>
</svg>
